M48
; DRILL file {KiCad 7.0.1} date Fri Nov  7 15:36:47 2025
; FORMAT={-:-/ absolute / inch / decimal}
; #@! TF.CreationDate,2025-11-07T15:36:47+01:00
; #@! TF.GenerationSoftware,Kicad,Pcbnew,7.0.1
; #@! TF.FileFunction,Plated,1,2,PTH
FMAT,2
INCH
; #@! TA.AperFunction,Plated,PTH,ViaDrill
T1C0.0236
; #@! TA.AperFunction,Plated,PTH,ComponentDrill
T2C0.0374
; #@! TA.AperFunction,Plated,PTH,ComponentDrill
T3C0.0394
; #@! TA.AperFunction,Plated,PTH,ComponentDrill
T4C0.0433
; #@! TA.AperFunction,Plated,PTH,ComponentDrill
T5C0.0906
; #@! TA.AperFunction,Plated,PTH,ComponentDrill
T6C0.0945
%
G90
G05
T1
X4.7638Y-2.0236
X4.8681Y-2.0256
X4.9409Y-2.3386
X5.1831Y-2.0394
X5.2756Y-2.435
T2
X5.7795Y-3.5744
X5.878Y-3.5744
X5.9567Y-3.5744
X6.0551Y-3.5744
T3
X4.1892Y-2.2205
X4.1892Y-2.3205
X4.2665Y-1.8201
X4.2665Y-1.9201
X4.2892Y-2.2205
X4.2892Y-2.3205
X4.3665Y-1.8201
X4.3665Y-1.9201
X4.3892Y-2.2205
X4.3892Y-2.3205
X4.4665Y-1.8201
X4.4665Y-1.9201
X4.4892Y-2.2205
X4.4892Y-2.3205
X4.5665Y-1.8201
X4.5665Y-1.9201
X4.6665Y-1.8201
X4.6665Y-1.9201
X4.7665Y-1.8201
X4.7665Y-1.9201
X4.8665Y-1.8201
X4.8665Y-1.9201
X4.9665Y-1.8201
X4.9665Y-1.9201
X5.0665Y-1.8201
X5.0665Y-1.9201
X5.1665Y-1.8201
X5.1665Y-1.9201
X5.2665Y-1.8201
X5.2665Y-1.9201
X5.3665Y-1.8201
X5.3665Y-1.9201
X5.4665Y-1.8201
X5.4665Y-1.9201
X5.5665Y-1.8201
X5.5665Y-1.9201
X5.6665Y-1.8201
X5.6665Y-1.9201
X5.7665Y-1.8201
X5.7665Y-1.9201
X5.8061Y-3.2352
X5.8665Y-1.8201
X5.8665Y-1.9201
X5.9061Y-3.2352
X5.9665Y-1.8201
X5.9665Y-1.9201
X6.0061Y-3.2352
X6.0665Y-1.8201
X6.0665Y-1.9201
X6.1665Y-1.8201
X6.1665Y-1.9201
T4
X5.5433Y-2.3839
X5.5433Y-2.561
X5.7992Y-2.3839
X5.7992Y-2.561
X5.9626Y-2.3799
X5.9626Y-2.5571
X6.2185Y-2.3799
X6.2185Y-2.5571
T5
X5.6587Y-3.6811
X6.176Y-3.6811
T6
X4.8504Y-2.2343
X4.8543Y-2.8346
X5.0354Y-2.2343
X5.0394Y-2.8346
X5.2205Y-2.2343
X5.2244Y-2.8346
T0
M30
