G04 #@! TF.GenerationSoftware,KiCad,Pcbnew,7.0.1*
G04 #@! TF.CreationDate,2025-11-07T15:36:25+01:00*
G04 #@! TF.ProjectId,MTP_PCB,4d54505f-5043-4422-9e6b-696361645f70,rev?*
G04 #@! TF.SameCoordinates,Original*
G04 #@! TF.FileFunction,Copper,L1,Top*
G04 #@! TF.FilePolarity,Positive*
%FSLAX46Y46*%
G04 Gerber Fmt 4.6, Leading zero omitted, Abs format (unit mm)*
G04 Created by KiCad (PCBNEW 7.0.1) date 2025-11-07 15:36:25*
%MOMM*%
%LPD*%
G01*
G04 APERTURE LIST*
G04 Aperture macros list*
%AMRoundRect*
0 Rectangle with rounded corners*
0 $1 Rounding radius*
0 $2 $3 $4 $5 $6 $7 $8 $9 X,Y pos of 4 corners*
0 Add a 4 corners polygon primitive as box body*
4,1,4,$2,$3,$4,$5,$6,$7,$8,$9,$2,$3,0*
0 Add four circle primitives for the rounded corners*
1,1,$1+$1,$2,$3*
1,1,$1+$1,$4,$5*
1,1,$1+$1,$6,$7*
1,1,$1+$1,$8,$9*
0 Add four rect primitives between the rounded corners*
20,1,$1+$1,$2,$3,$4,$5,0*
20,1,$1+$1,$4,$5,$6,$7,0*
20,1,$1+$1,$6,$7,$8,$9,0*
20,1,$1+$1,$8,$9,$2,$3,0*%
G04 Aperture macros list end*
G04 #@! TA.AperFunction,ComponentPad*
%ADD10R,1.600000X1.500000*%
G04 #@! TD*
G04 #@! TA.AperFunction,ComponentPad*
%ADD11C,1.600000*%
G04 #@! TD*
G04 #@! TA.AperFunction,ComponentPad*
%ADD12C,3.000000*%
G04 #@! TD*
G04 #@! TA.AperFunction,SMDPad,CuDef*
%ADD13RoundRect,0.250000X-0.625000X0.400000X-0.625000X-0.400000X0.625000X-0.400000X0.625000X0.400000X0*%
G04 #@! TD*
G04 #@! TA.AperFunction,SMDPad,CuDef*
%ADD14RoundRect,0.250001X0.624999X-0.462499X0.624999X0.462499X-0.624999X0.462499X-0.624999X-0.462499X0*%
G04 #@! TD*
G04 #@! TA.AperFunction,ComponentPad*
%ADD15C,4.000000*%
G04 #@! TD*
G04 #@! TA.AperFunction,ComponentPad*
%ADD16R,1.700000X1.700000*%
G04 #@! TD*
G04 #@! TA.AperFunction,ComponentPad*
%ADD17C,1.700000*%
G04 #@! TD*
G04 #@! TA.AperFunction,ComponentPad*
%ADD18O,1.700000X1.700000*%
G04 #@! TD*
G04 #@! TA.AperFunction,ComponentPad*
%ADD19C,2.000000*%
G04 #@! TD*
G04 #@! TA.AperFunction,ViaPad*
%ADD20C,0.900000*%
G04 #@! TD*
G04 #@! TA.AperFunction,Conductor*
%ADD21C,0.200000*%
G04 #@! TD*
G04 #@! TA.AperFunction,Conductor*
%ADD22C,0.500000*%
G04 #@! TD*
G04 APERTURE END LIST*
D10*
X146800000Y-90790000D03*
D11*
X149300000Y-90790000D03*
X151300000Y-90790000D03*
X153800000Y-90790000D03*
D12*
X143730000Y-93500000D03*
X156870000Y-93500000D03*
D13*
X123400000Y-87875000D03*
X123400000Y-90975000D03*
D14*
X123350000Y-97475000D03*
X123350000Y-94500000D03*
D15*
X123200000Y-56750000D03*
X127900000Y-56750000D03*
X132600000Y-56750000D03*
D16*
X114025000Y-56400000D03*
D17*
X114025000Y-58940000D03*
X111485000Y-56400000D03*
X111485000Y-58940000D03*
X108945000Y-56400000D03*
X108945000Y-58940000D03*
X106405000Y-56400000D03*
X106405000Y-58940000D03*
D13*
X133400000Y-87850000D03*
X133400000Y-90950000D03*
D14*
X126870000Y-97450000D03*
X126870000Y-94475000D03*
D16*
X147475000Y-82175000D03*
D18*
X150015000Y-82175000D03*
X152555000Y-82175000D03*
D19*
X157950000Y-64950000D03*
X151450000Y-64950000D03*
X157950000Y-60450000D03*
X151450000Y-60450000D03*
X147300000Y-65050000D03*
X140800000Y-65050000D03*
X147300000Y-60550000D03*
X140800000Y-60550000D03*
D14*
X133350000Y-97450000D03*
X133350000Y-94475000D03*
D13*
X130150000Y-87850000D03*
X130150000Y-90950000D03*
X126850000Y-87850000D03*
X126850000Y-90950000D03*
D15*
X123300000Y-72000000D03*
X128000000Y-72000000D03*
X132700000Y-72000000D03*
D14*
X130130000Y-97450000D03*
X130130000Y-94475000D03*
D16*
X108370000Y-48770000D03*
D18*
X108370000Y-46230000D03*
X110910000Y-48770000D03*
X110910000Y-46230000D03*
X113450000Y-48770000D03*
X113450000Y-46230000D03*
X115990000Y-48770000D03*
X115990000Y-46230000D03*
X118530000Y-48770000D03*
X118530000Y-46230000D03*
X121070000Y-48770000D03*
X121070000Y-46230000D03*
X123610000Y-48770000D03*
X123610000Y-46230000D03*
X126150000Y-48770000D03*
X126150000Y-46230000D03*
X128690000Y-48770000D03*
X128690000Y-46230000D03*
X131230000Y-48770000D03*
X131230000Y-46230000D03*
X133770000Y-48770000D03*
X133770000Y-46230000D03*
X136310000Y-48770000D03*
X136310000Y-46230000D03*
X138850000Y-48770000D03*
X138850000Y-46230000D03*
X141390000Y-48770000D03*
X141390000Y-46230000D03*
X143930000Y-48770000D03*
X143930000Y-46230000D03*
X146470000Y-48770000D03*
X146470000Y-46230000D03*
X149010000Y-48770000D03*
X149010000Y-46230000D03*
X151550000Y-48770000D03*
X151550000Y-46230000D03*
X154090000Y-48770000D03*
X154090000Y-46230000D03*
X156630000Y-48770000D03*
X156630000Y-46230000D03*
D20*
X121000000Y-51400000D03*
X123650000Y-51450000D03*
X125500000Y-59400000D03*
X131650000Y-51799500D03*
X134000000Y-61850000D03*
D21*
X123400000Y-86100000D02*
X136200000Y-73300000D01*
X136200000Y-73300000D02*
X136200000Y-56750000D01*
X123400000Y-87875000D02*
X123400000Y-86100000D01*
X135050000Y-47510000D02*
X133770000Y-46230000D01*
X135050000Y-50000000D02*
X135050000Y-47510000D01*
X137550000Y-74450000D02*
X137550000Y-52500000D01*
X137550000Y-52500000D02*
X135050000Y-50000000D01*
X126850000Y-85150000D02*
X137550000Y-74450000D01*
X126850000Y-86500000D02*
X126850000Y-85150000D01*
X126850000Y-87850000D02*
X126850000Y-85950000D01*
X147530000Y-44750000D02*
X149010000Y-46230000D01*
X145410000Y-44750000D02*
X147530000Y-44750000D01*
X143930000Y-46230000D02*
X145410000Y-44750000D01*
X155250000Y-47390000D02*
X156630000Y-48770000D01*
X155250000Y-45250000D02*
X155250000Y-47390000D01*
X154750000Y-44750000D02*
X155250000Y-45250000D01*
X150490000Y-44750000D02*
X154750000Y-44750000D01*
X149010000Y-46230000D02*
X150490000Y-44750000D01*
X147400000Y-64950000D02*
X147300000Y-65050000D01*
D22*
X151450000Y-64950000D02*
X147400000Y-64950000D01*
X151450000Y-64950000D02*
X157950000Y-64950000D01*
X147300000Y-65050000D02*
X140800000Y-65050000D01*
X133400000Y-97500000D02*
X133350000Y-97450000D01*
X137500000Y-97500000D02*
X133400000Y-97500000D01*
X139500000Y-95500000D02*
X137500000Y-97500000D01*
X139500000Y-93250000D02*
X139500000Y-95500000D01*
X142250000Y-90500000D02*
X139500000Y-93250000D01*
X143500000Y-90500000D02*
X142250000Y-90500000D01*
X145250000Y-92250000D02*
X143500000Y-90500000D01*
X152340000Y-92250000D02*
X145250000Y-92250000D01*
X153800000Y-90790000D02*
X152340000Y-92250000D01*
D21*
X123375000Y-97450000D02*
X133350000Y-97450000D01*
X123350000Y-97475000D02*
X123375000Y-97450000D01*
D22*
X153800000Y-86850000D02*
X152555000Y-85605000D01*
X152555000Y-85605000D02*
X152555000Y-82175000D01*
X153800000Y-90790000D02*
X153800000Y-86850000D01*
D21*
X123200000Y-53600000D02*
X123200000Y-56750000D01*
X121000000Y-51400000D02*
X123200000Y-53600000D01*
X125500000Y-53300000D02*
X125500000Y-59400000D01*
X123650000Y-51450000D02*
X125500000Y-53300000D01*
X111485000Y-56400000D02*
X113685000Y-54200000D01*
X115200000Y-54200000D02*
X119100000Y-50300000D01*
X119100000Y-50300000D02*
X124620000Y-50300000D01*
X124620000Y-50300000D02*
X126150000Y-48770000D01*
X113685000Y-54200000D02*
X115200000Y-54200000D01*
X128450000Y-51050000D02*
X127300000Y-49900000D01*
X136200000Y-56750000D02*
X136200000Y-53600000D01*
X127300000Y-49900000D02*
X127300000Y-47380000D01*
X127300000Y-47380000D02*
X126150000Y-46230000D01*
X136200000Y-53600000D02*
X133650000Y-51050000D01*
X133650000Y-51050000D02*
X128450000Y-51050000D01*
X136200000Y-56750000D02*
X136200000Y-56550000D01*
X117140000Y-45660000D02*
X117750000Y-45050000D01*
X104990000Y-58940000D02*
X103950000Y-57900000D01*
X106405000Y-58940000D02*
X104990000Y-58940000D01*
X127510000Y-45050000D02*
X128690000Y-46230000D01*
X103950000Y-54500000D02*
X107150000Y-51300000D01*
X107150000Y-51300000D02*
X115300000Y-51300000D01*
X117140000Y-49460000D02*
X117140000Y-45660000D01*
X117750000Y-45050000D02*
X127510000Y-45050000D01*
X103950000Y-57900000D02*
X103950000Y-54500000D01*
X115300000Y-51300000D02*
X117140000Y-49460000D01*
X110095000Y-57790000D02*
X118290000Y-57790000D01*
X131700500Y-51850000D02*
X132750000Y-51850000D01*
X132750000Y-51850000D02*
X135550000Y-54650000D01*
X133125000Y-60525000D02*
X121025000Y-60525000D01*
X118290000Y-57790000D02*
X121025000Y-60525000D01*
X121025000Y-60525000D02*
X121100000Y-60600000D01*
X135550000Y-54650000D02*
X135550000Y-58100000D01*
X135550000Y-58100000D02*
X133125000Y-60525000D01*
X131650000Y-51799500D02*
X131700500Y-51850000D01*
X108945000Y-58940000D02*
X110095000Y-57790000D01*
X132450000Y-63400000D02*
X134000000Y-61850000D01*
X115945000Y-63400000D02*
X132450000Y-63400000D01*
X111485000Y-58940000D02*
X115945000Y-63400000D01*
X146470000Y-53570000D02*
X146470000Y-48770000D01*
X147300000Y-54400000D02*
X146470000Y-53570000D01*
X147300000Y-60550000D02*
X147300000Y-54400000D01*
X147300000Y-60550000D02*
X140800000Y-60550000D01*
X151450000Y-48870000D02*
X151550000Y-48770000D01*
X151450000Y-60450000D02*
X157950000Y-60450000D01*
X151750000Y-48970000D02*
X151550000Y-48770000D01*
X151450000Y-60450000D02*
X151450000Y-48870000D01*
X152750000Y-47430000D02*
X151550000Y-46230000D01*
X143150000Y-75850000D02*
X155500000Y-75850000D01*
X160650000Y-59800000D02*
X152750000Y-51900000D01*
X131150000Y-87850000D02*
X143150000Y-75850000D01*
X130150000Y-87850000D02*
X131150000Y-87850000D01*
X155500000Y-75850000D02*
X160650000Y-70700000D01*
X160650000Y-70700000D02*
X160650000Y-59900000D01*
X152750000Y-51900000D02*
X152750000Y-47430000D01*
X133400000Y-87850000D02*
X133400000Y-86500000D01*
X156400000Y-76550000D02*
X161950000Y-71000000D01*
X133400000Y-86500000D02*
X143350000Y-76550000D01*
X161950000Y-71000000D02*
X162000000Y-71000000D01*
X162000000Y-71000000D02*
X162000000Y-60100000D01*
X154090000Y-52190000D02*
X154090000Y-48770000D01*
X143350000Y-76550000D02*
X156400000Y-76550000D01*
X162000000Y-60100000D02*
X154090000Y-52190000D01*
X108370000Y-46230000D02*
X110910000Y-46230000D01*
X130130000Y-90970000D02*
X130150000Y-90950000D01*
X130130000Y-94475000D02*
X130130000Y-90970000D01*
X126870000Y-94475000D02*
X126870000Y-90970000D01*
X126870000Y-90970000D02*
X126850000Y-90950000D01*
X123400000Y-94450000D02*
X123350000Y-94500000D01*
X123400000Y-90975000D02*
X123400000Y-94450000D01*
X133350000Y-94475000D02*
X133350000Y-91000000D01*
X133350000Y-91000000D02*
X133400000Y-90950000D01*
X143730000Y-93500000D02*
X156870000Y-93500000D01*
D22*
X146800000Y-90790000D02*
X146800000Y-86250000D01*
X146800000Y-86250000D02*
X147475000Y-85575000D01*
X147475000Y-85575000D02*
X147475000Y-82175000D01*
M02*
