G04 #@! TF.GenerationSoftware,KiCad,Pcbnew,7.0.1*
G04 #@! TF.CreationDate,2025-11-07T15:36:25+01:00*
G04 #@! TF.ProjectId,MTP_PCB,4d54505f-5043-4422-9e6b-696361645f70,rev?*
G04 #@! TF.SameCoordinates,Original*
G04 #@! TF.FileFunction,Copper,L2,Bot*
G04 #@! TF.FilePolarity,Positive*
%FSLAX46Y46*%
G04 Gerber Fmt 4.6, Leading zero omitted, Abs format (unit mm)*
G04 Created by KiCad (PCBNEW 7.0.1) date 2025-11-07 15:36:25*
%MOMM*%
%LPD*%
G01*
G04 APERTURE LIST*
G04 #@! TA.AperFunction,ComponentPad*
%ADD10R,1.600000X1.500000*%
G04 #@! TD*
G04 #@! TA.AperFunction,ComponentPad*
%ADD11C,1.600000*%
G04 #@! TD*
G04 #@! TA.AperFunction,ComponentPad*
%ADD12C,3.000000*%
G04 #@! TD*
G04 #@! TA.AperFunction,ComponentPad*
%ADD13C,4.000000*%
G04 #@! TD*
G04 #@! TA.AperFunction,ComponentPad*
%ADD14R,1.700000X1.700000*%
G04 #@! TD*
G04 #@! TA.AperFunction,ComponentPad*
%ADD15C,1.700000*%
G04 #@! TD*
G04 #@! TA.AperFunction,ComponentPad*
%ADD16O,1.700000X1.700000*%
G04 #@! TD*
G04 #@! TA.AperFunction,ComponentPad*
%ADD17C,2.000000*%
G04 #@! TD*
G04 #@! TA.AperFunction,ViaPad*
%ADD18C,0.900000*%
G04 #@! TD*
G04 #@! TA.AperFunction,Conductor*
%ADD19C,0.500000*%
G04 #@! TD*
G04 #@! TA.AperFunction,Conductor*
%ADD20C,0.200000*%
G04 #@! TD*
G04 APERTURE END LIST*
D10*
X146800000Y-90790000D03*
D11*
X149300000Y-90790000D03*
X151300000Y-90790000D03*
X153800000Y-90790000D03*
D12*
X143730000Y-93500000D03*
X156870000Y-93500000D03*
D13*
X123200000Y-56750000D03*
X127900000Y-56750000D03*
X132600000Y-56750000D03*
D14*
X114025000Y-56400000D03*
D15*
X114025000Y-58940000D03*
X111485000Y-56400000D03*
X111485000Y-58940000D03*
X108945000Y-56400000D03*
X108945000Y-58940000D03*
X106405000Y-56400000D03*
X106405000Y-58940000D03*
D14*
X147475000Y-82175000D03*
D16*
X150015000Y-82175000D03*
X152555000Y-82175000D03*
D17*
X157950000Y-64950000D03*
X151450000Y-64950000D03*
X157950000Y-60450000D03*
X151450000Y-60450000D03*
X147300000Y-65050000D03*
X140800000Y-65050000D03*
X147300000Y-60550000D03*
X140800000Y-60550000D03*
D13*
X123300000Y-72000000D03*
X128000000Y-72000000D03*
X132700000Y-72000000D03*
D14*
X108370000Y-48770000D03*
D16*
X108370000Y-46230000D03*
X110910000Y-48770000D03*
X110910000Y-46230000D03*
X113450000Y-48770000D03*
X113450000Y-46230000D03*
X115990000Y-48770000D03*
X115990000Y-46230000D03*
X118530000Y-48770000D03*
X118530000Y-46230000D03*
X121070000Y-48770000D03*
X121070000Y-46230000D03*
X123610000Y-48770000D03*
X123610000Y-46230000D03*
X126150000Y-48770000D03*
X126150000Y-46230000D03*
X128690000Y-48770000D03*
X128690000Y-46230000D03*
X131230000Y-48770000D03*
X131230000Y-46230000D03*
X133770000Y-48770000D03*
X133770000Y-46230000D03*
X136310000Y-48770000D03*
X136310000Y-46230000D03*
X138850000Y-48770000D03*
X138850000Y-46230000D03*
X141390000Y-48770000D03*
X141390000Y-46230000D03*
X143930000Y-48770000D03*
X143930000Y-46230000D03*
X146470000Y-48770000D03*
X146470000Y-46230000D03*
X149010000Y-48770000D03*
X149010000Y-46230000D03*
X151550000Y-48770000D03*
X151550000Y-46230000D03*
X154090000Y-48770000D03*
X154090000Y-46230000D03*
X156630000Y-48770000D03*
X156630000Y-46230000D03*
D18*
X121000000Y-51400000D03*
X123650000Y-51450000D03*
X125500000Y-59400000D03*
X131650000Y-51799500D03*
X134000000Y-61850000D03*
D19*
X128000000Y-72000000D02*
X127900000Y-71900000D01*
X127900000Y-71900000D02*
X127900000Y-56750000D01*
X128000000Y-67950000D02*
X128000000Y-72000000D01*
X130900000Y-65050000D02*
X128000000Y-67950000D01*
X140800000Y-65050000D02*
X130900000Y-65050000D01*
D20*
X123300000Y-67950000D02*
X123300000Y-72000000D01*
X125500000Y-65750000D02*
X123300000Y-67950000D01*
X125500000Y-59400000D02*
X125500000Y-65750000D01*
D19*
X125400000Y-54250000D02*
X127900000Y-56750000D01*
X120500000Y-54250000D02*
X125400000Y-54250000D01*
X118350000Y-56400000D02*
X120500000Y-54250000D01*
X114025000Y-56400000D02*
X118350000Y-56400000D01*
X146690000Y-85500000D02*
X150015000Y-82175000D01*
X122750000Y-85500000D02*
X146690000Y-85500000D01*
X114025000Y-76775000D02*
X122750000Y-85500000D01*
X114025000Y-58940000D02*
X114025000Y-76775000D01*
X156630000Y-59770000D02*
X156630000Y-48770000D01*
X151450000Y-64950000D02*
X156630000Y-59770000D01*
X152555000Y-66055000D02*
X151450000Y-64950000D01*
X152555000Y-82175000D02*
X152555000Y-66055000D01*
D20*
X121000000Y-51400000D02*
X121000000Y-48840000D01*
X121000000Y-48840000D02*
X121070000Y-48770000D01*
X123650000Y-51450000D02*
X123610000Y-51410000D01*
X123610000Y-51410000D02*
X123610000Y-48770000D01*
X131650000Y-51799500D02*
X131230000Y-51379500D01*
X131230000Y-51379500D02*
X131230000Y-48770000D01*
X133770000Y-51630000D02*
X133770000Y-48770000D01*
X106405000Y-56400000D02*
X109955000Y-52850000D01*
X132550000Y-52850000D02*
X133770000Y-51630000D01*
X109955000Y-52850000D02*
X132550000Y-52850000D01*
X134100000Y-53500000D02*
X111845000Y-53500000D01*
X111845000Y-53500000D02*
X108945000Y-56400000D01*
X136310000Y-48770000D02*
X136310000Y-51290000D01*
X136310000Y-51290000D02*
X134100000Y-53500000D01*
X137460000Y-58390000D02*
X137460000Y-47380000D01*
X134000000Y-61850000D02*
X137460000Y-58390000D01*
X137460000Y-47380000D02*
X136310000Y-46230000D01*
M02*
