G04 #@! TF.GenerationSoftware,KiCad,Pcbnew,7.0.1*
G04 #@! TF.CreationDate,2025-11-07T15:36:25+01:00*
G04 #@! TF.ProjectId,MTP_PCB,4d54505f-5043-4422-9e6b-696361645f70,rev?*
G04 #@! TF.SameCoordinates,Original*
G04 #@! TF.FileFunction,Legend,Top*
G04 #@! TF.FilePolarity,Positive*
%FSLAX46Y46*%
G04 Gerber Fmt 4.6, Leading zero omitted, Abs format (unit mm)*
G04 Created by KiCad (PCBNEW 7.0.1) date 2025-11-07 15:36:25*
%MOMM*%
%LPD*%
G01*
G04 APERTURE LIST*
%ADD10C,0.150000*%
%ADD11C,0.100000*%
%ADD12C,0.120000*%
G04 APERTURE END LIST*
D10*
X149966666Y-87062619D02*
X149966666Y-87776904D01*
X149966666Y-87776904D02*
X149919047Y-87919761D01*
X149919047Y-87919761D02*
X149823809Y-88015000D01*
X149823809Y-88015000D02*
X149680952Y-88062619D01*
X149680952Y-88062619D02*
X149585714Y-88062619D01*
X150395238Y-87157857D02*
X150442857Y-87110238D01*
X150442857Y-87110238D02*
X150538095Y-87062619D01*
X150538095Y-87062619D02*
X150776190Y-87062619D01*
X150776190Y-87062619D02*
X150871428Y-87110238D01*
X150871428Y-87110238D02*
X150919047Y-87157857D01*
X150919047Y-87157857D02*
X150966666Y-87253095D01*
X150966666Y-87253095D02*
X150966666Y-87348333D01*
X150966666Y-87348333D02*
X150919047Y-87491190D01*
X150919047Y-87491190D02*
X150347619Y-88062619D01*
X150347619Y-88062619D02*
X150966666Y-88062619D01*
D11*
X118715000Y-58833332D02*
X118762619Y-58690475D01*
X118762619Y-58690475D02*
X118762619Y-58452380D01*
X118762619Y-58452380D02*
X118715000Y-58357142D01*
X118715000Y-58357142D02*
X118667380Y-58309523D01*
X118667380Y-58309523D02*
X118572142Y-58261904D01*
X118572142Y-58261904D02*
X118476904Y-58261904D01*
X118476904Y-58261904D02*
X118381666Y-58309523D01*
X118381666Y-58309523D02*
X118334047Y-58357142D01*
X118334047Y-58357142D02*
X118286428Y-58452380D01*
X118286428Y-58452380D02*
X118238809Y-58642856D01*
X118238809Y-58642856D02*
X118191190Y-58738094D01*
X118191190Y-58738094D02*
X118143571Y-58785713D01*
X118143571Y-58785713D02*
X118048333Y-58833332D01*
X118048333Y-58833332D02*
X117953095Y-58833332D01*
X117953095Y-58833332D02*
X117857857Y-58785713D01*
X117857857Y-58785713D02*
X117810238Y-58738094D01*
X117810238Y-58738094D02*
X117762619Y-58642856D01*
X117762619Y-58642856D02*
X117762619Y-58404761D01*
X117762619Y-58404761D02*
X117810238Y-58261904D01*
X117762619Y-57928570D02*
X118762619Y-57690475D01*
X118762619Y-57690475D02*
X118048333Y-57499999D01*
X118048333Y-57499999D02*
X118762619Y-57309523D01*
X118762619Y-57309523D02*
X117762619Y-57071428D01*
X118762619Y-56166666D02*
X118762619Y-56738094D01*
X118762619Y-56452380D02*
X117762619Y-56452380D01*
X117762619Y-56452380D02*
X117905476Y-56547618D01*
X117905476Y-56547618D02*
X118000714Y-56642856D01*
X118000714Y-56642856D02*
X118048333Y-56738094D01*
D10*
X105462619Y-65011904D02*
X106272142Y-65011904D01*
X106272142Y-65011904D02*
X106367380Y-64964285D01*
X106367380Y-64964285D02*
X106415000Y-64916666D01*
X106415000Y-64916666D02*
X106462619Y-64821428D01*
X106462619Y-64821428D02*
X106462619Y-64630952D01*
X106462619Y-64630952D02*
X106415000Y-64535714D01*
X106415000Y-64535714D02*
X106367380Y-64488095D01*
X106367380Y-64488095D02*
X106272142Y-64440476D01*
X106272142Y-64440476D02*
X105462619Y-64440476D01*
X106462619Y-63440476D02*
X106462619Y-64011904D01*
X106462619Y-63726190D02*
X105462619Y-63726190D01*
X105462619Y-63726190D02*
X105605476Y-63821428D01*
X105605476Y-63821428D02*
X105700714Y-63916666D01*
X105700714Y-63916666D02*
X105748333Y-64011904D01*
X144167619Y-82508333D02*
X144881904Y-82508333D01*
X144881904Y-82508333D02*
X145024761Y-82555952D01*
X145024761Y-82555952D02*
X145120000Y-82651190D01*
X145120000Y-82651190D02*
X145167619Y-82794047D01*
X145167619Y-82794047D02*
X145167619Y-82889285D01*
X144167619Y-82127380D02*
X144167619Y-81508333D01*
X144167619Y-81508333D02*
X144548571Y-81841666D01*
X144548571Y-81841666D02*
X144548571Y-81698809D01*
X144548571Y-81698809D02*
X144596190Y-81603571D01*
X144596190Y-81603571D02*
X144643809Y-81555952D01*
X144643809Y-81555952D02*
X144739047Y-81508333D01*
X144739047Y-81508333D02*
X144977142Y-81508333D01*
X144977142Y-81508333D02*
X145072380Y-81555952D01*
X145072380Y-81555952D02*
X145120000Y-81603571D01*
X145120000Y-81603571D02*
X145167619Y-81698809D01*
X145167619Y-81698809D02*
X145167619Y-81984523D01*
X145167619Y-81984523D02*
X145120000Y-82079761D01*
X145120000Y-82079761D02*
X145072380Y-82127380D01*
X153366667Y-67365000D02*
X153509524Y-67412619D01*
X153509524Y-67412619D02*
X153747619Y-67412619D01*
X153747619Y-67412619D02*
X153842857Y-67365000D01*
X153842857Y-67365000D02*
X153890476Y-67317380D01*
X153890476Y-67317380D02*
X153938095Y-67222142D01*
X153938095Y-67222142D02*
X153938095Y-67126904D01*
X153938095Y-67126904D02*
X153890476Y-67031666D01*
X153890476Y-67031666D02*
X153842857Y-66984047D01*
X153842857Y-66984047D02*
X153747619Y-66936428D01*
X153747619Y-66936428D02*
X153557143Y-66888809D01*
X153557143Y-66888809D02*
X153461905Y-66841190D01*
X153461905Y-66841190D02*
X153414286Y-66793571D01*
X153414286Y-66793571D02*
X153366667Y-66698333D01*
X153366667Y-66698333D02*
X153366667Y-66603095D01*
X153366667Y-66603095D02*
X153414286Y-66507857D01*
X153414286Y-66507857D02*
X153461905Y-66460238D01*
X153461905Y-66460238D02*
X153557143Y-66412619D01*
X153557143Y-66412619D02*
X153795238Y-66412619D01*
X153795238Y-66412619D02*
X153938095Y-66460238D01*
X154271429Y-66412619D02*
X154509524Y-67412619D01*
X154509524Y-67412619D02*
X154700000Y-66698333D01*
X154700000Y-66698333D02*
X154890476Y-67412619D01*
X154890476Y-67412619D02*
X155128572Y-66412619D01*
X155938095Y-66745952D02*
X155938095Y-67412619D01*
X155700000Y-66365000D02*
X155461905Y-67079285D01*
X155461905Y-67079285D02*
X156080952Y-67079285D01*
X142716667Y-67465000D02*
X142859524Y-67512619D01*
X142859524Y-67512619D02*
X143097619Y-67512619D01*
X143097619Y-67512619D02*
X143192857Y-67465000D01*
X143192857Y-67465000D02*
X143240476Y-67417380D01*
X143240476Y-67417380D02*
X143288095Y-67322142D01*
X143288095Y-67322142D02*
X143288095Y-67226904D01*
X143288095Y-67226904D02*
X143240476Y-67131666D01*
X143240476Y-67131666D02*
X143192857Y-67084047D01*
X143192857Y-67084047D02*
X143097619Y-67036428D01*
X143097619Y-67036428D02*
X142907143Y-66988809D01*
X142907143Y-66988809D02*
X142811905Y-66941190D01*
X142811905Y-66941190D02*
X142764286Y-66893571D01*
X142764286Y-66893571D02*
X142716667Y-66798333D01*
X142716667Y-66798333D02*
X142716667Y-66703095D01*
X142716667Y-66703095D02*
X142764286Y-66607857D01*
X142764286Y-66607857D02*
X142811905Y-66560238D01*
X142811905Y-66560238D02*
X142907143Y-66512619D01*
X142907143Y-66512619D02*
X143145238Y-66512619D01*
X143145238Y-66512619D02*
X143288095Y-66560238D01*
X143621429Y-66512619D02*
X143859524Y-67512619D01*
X143859524Y-67512619D02*
X144050000Y-66798333D01*
X144050000Y-66798333D02*
X144240476Y-67512619D01*
X144240476Y-67512619D02*
X144478572Y-66512619D01*
X145288095Y-66512619D02*
X145097619Y-66512619D01*
X145097619Y-66512619D02*
X145002381Y-66560238D01*
X145002381Y-66560238D02*
X144954762Y-66607857D01*
X144954762Y-66607857D02*
X144859524Y-66750714D01*
X144859524Y-66750714D02*
X144811905Y-66941190D01*
X144811905Y-66941190D02*
X144811905Y-67322142D01*
X144811905Y-67322142D02*
X144859524Y-67417380D01*
X144859524Y-67417380D02*
X144907143Y-67465000D01*
X144907143Y-67465000D02*
X145002381Y-67512619D01*
X145002381Y-67512619D02*
X145192857Y-67512619D01*
X145192857Y-67512619D02*
X145288095Y-67465000D01*
X145288095Y-67465000D02*
X145335714Y-67417380D01*
X145335714Y-67417380D02*
X145383333Y-67322142D01*
X145383333Y-67322142D02*
X145383333Y-67084047D01*
X145383333Y-67084047D02*
X145335714Y-66988809D01*
X145335714Y-66988809D02*
X145288095Y-66941190D01*
X145288095Y-66941190D02*
X145192857Y-66893571D01*
X145192857Y-66893571D02*
X145002381Y-66893571D01*
X145002381Y-66893571D02*
X144907143Y-66941190D01*
X144907143Y-66941190D02*
X144859524Y-66988809D01*
X144859524Y-66988809D02*
X144811905Y-67084047D01*
D11*
X118365000Y-74383332D02*
X118412619Y-74240475D01*
X118412619Y-74240475D02*
X118412619Y-74002380D01*
X118412619Y-74002380D02*
X118365000Y-73907142D01*
X118365000Y-73907142D02*
X118317380Y-73859523D01*
X118317380Y-73859523D02*
X118222142Y-73811904D01*
X118222142Y-73811904D02*
X118126904Y-73811904D01*
X118126904Y-73811904D02*
X118031666Y-73859523D01*
X118031666Y-73859523D02*
X117984047Y-73907142D01*
X117984047Y-73907142D02*
X117936428Y-74002380D01*
X117936428Y-74002380D02*
X117888809Y-74192856D01*
X117888809Y-74192856D02*
X117841190Y-74288094D01*
X117841190Y-74288094D02*
X117793571Y-74335713D01*
X117793571Y-74335713D02*
X117698333Y-74383332D01*
X117698333Y-74383332D02*
X117603095Y-74383332D01*
X117603095Y-74383332D02*
X117507857Y-74335713D01*
X117507857Y-74335713D02*
X117460238Y-74288094D01*
X117460238Y-74288094D02*
X117412619Y-74192856D01*
X117412619Y-74192856D02*
X117412619Y-73954761D01*
X117412619Y-73954761D02*
X117460238Y-73811904D01*
X117412619Y-73478570D02*
X118412619Y-73240475D01*
X118412619Y-73240475D02*
X117698333Y-73049999D01*
X117698333Y-73049999D02*
X118412619Y-72859523D01*
X118412619Y-72859523D02*
X117412619Y-72621428D01*
X117507857Y-72288094D02*
X117460238Y-72240475D01*
X117460238Y-72240475D02*
X117412619Y-72145237D01*
X117412619Y-72145237D02*
X117412619Y-71907142D01*
X117412619Y-71907142D02*
X117460238Y-71811904D01*
X117460238Y-71811904D02*
X117507857Y-71764285D01*
X117507857Y-71764285D02*
X117603095Y-71716666D01*
X117603095Y-71716666D02*
X117698333Y-71716666D01*
X117698333Y-71716666D02*
X117841190Y-71764285D01*
X117841190Y-71764285D02*
X118412619Y-72335713D01*
X118412619Y-72335713D02*
X118412619Y-71716666D01*
D12*
X142990000Y-103370000D02*
X142990000Y-103890000D01*
X142990000Y-103890000D02*
X157610000Y-103890000D01*
X143640000Y-88410000D02*
X143640000Y-91740000D01*
X143640000Y-88410000D02*
X156960000Y-88410000D01*
X143640000Y-103370000D02*
X142990000Y-103370000D01*
X143640000Y-103370000D02*
X143640000Y-95260000D01*
X145900000Y-88190000D02*
X147700000Y-88190000D01*
X156960000Y-88410000D02*
X156960000Y-91740000D01*
X156960000Y-95260000D02*
X156960000Y-103370000D01*
X157610000Y-103370000D02*
X156960000Y-103370000D01*
X157610000Y-103890000D02*
X157610000Y-103370000D01*
X124310000Y-88697936D02*
X124310000Y-90152064D01*
X122490000Y-88697936D02*
X122490000Y-90152064D01*
X122215000Y-98447500D02*
X124485000Y-98447500D01*
X124485000Y-98447500D02*
X124485000Y-94387500D01*
X122215000Y-94387500D02*
X122215000Y-98447500D01*
D11*
X120900000Y-52550000D02*
X134900000Y-52550000D01*
X134900000Y-52550000D02*
X134900000Y-60950000D01*
X134900000Y-60950000D02*
X120900000Y-60950000D01*
X120900000Y-60950000D02*
X120900000Y-52550000D01*
D12*
X116125000Y-54800000D02*
X116125000Y-54800000D01*
X116125000Y-54800000D02*
X116125000Y-84000000D01*
X100675000Y-54800000D02*
X116125000Y-54800000D01*
X115549000Y-55130000D02*
X115549000Y-55130000D01*
X115549000Y-55130000D02*
X115549000Y-60464000D01*
X104881000Y-55130000D02*
X115549000Y-55130000D01*
X104881000Y-55130000D02*
X104881000Y-55130000D01*
X112755000Y-55384000D02*
X112755000Y-55384000D01*
X115041000Y-57670000D02*
X112755000Y-57670000D01*
X112755000Y-57670000D02*
X112755000Y-55384000D01*
X115549000Y-60464000D02*
X104881000Y-60464000D01*
X104881000Y-60464000D02*
X104881000Y-55130000D01*
X116125000Y-84000000D02*
X100675000Y-84000000D01*
X100675000Y-84000000D02*
X100675000Y-54800000D01*
X134310000Y-88672936D02*
X134310000Y-90127064D01*
X132490000Y-88672936D02*
X132490000Y-90127064D01*
X125735000Y-98422500D02*
X128005000Y-98422500D01*
X128005000Y-98422500D02*
X128005000Y-94362500D01*
X125735000Y-94362500D02*
X125735000Y-98422500D01*
X148745000Y-83505000D02*
X153885000Y-83505000D01*
X148745000Y-83505000D02*
X148745000Y-80845000D01*
X153885000Y-83505000D02*
X153885000Y-80845000D01*
X146145000Y-82175000D02*
X146145000Y-80845000D01*
X146145000Y-80845000D02*
X147475000Y-80845000D01*
X148745000Y-80845000D02*
X153885000Y-80845000D01*
X158200000Y-63450000D02*
X158200000Y-61950000D01*
X156950000Y-59450000D02*
X152450000Y-59450000D01*
X152450000Y-65950000D02*
X156950000Y-65950000D01*
X151200000Y-61950000D02*
X151200000Y-63450000D01*
X147550000Y-63550000D02*
X147550000Y-62050000D01*
X146300000Y-59550000D02*
X141800000Y-59550000D01*
X141800000Y-66050000D02*
X146300000Y-66050000D01*
X140550000Y-62050000D02*
X140550000Y-63550000D01*
X132215000Y-98422500D02*
X134485000Y-98422500D01*
X134485000Y-98422500D02*
X134485000Y-94362500D01*
X132215000Y-94362500D02*
X132215000Y-98422500D01*
X131060000Y-88672936D02*
X131060000Y-90127064D01*
X129240000Y-88672936D02*
X129240000Y-90127064D01*
X127760000Y-88672936D02*
X127760000Y-90127064D01*
X125940000Y-88672936D02*
X125940000Y-90127064D01*
D11*
X121000000Y-67800000D02*
X135000000Y-67800000D01*
X135000000Y-67800000D02*
X135000000Y-76200000D01*
X135000000Y-76200000D02*
X121000000Y-76200000D01*
X121000000Y-76200000D02*
X121000000Y-67800000D01*
D12*
X128995000Y-98422500D02*
X131265000Y-98422500D01*
X131265000Y-98422500D02*
X131265000Y-94362500D01*
X128995000Y-94362500D02*
X128995000Y-98422500D01*
M02*
